<?xml version="1.0" ?><!DOCTYPE svg  PUBLIC '-//W3C//DTD SVG 1.1//EN'  'http://www.w3.org/Graphics/SVG/1.1/DTD/svg11.dtd'><svg enable-background="new 0 0 512 512" id="Layer_1" version="1.1" viewBox="0 0 512 512" xml:space="preserve" xmlns="http://www.w3.org/2000/svg" xmlns:xlink="http://www.w3.org/1999/xlink"><linearGradient gradientUnits="userSpaceOnUse" id="SVGID_1_" x1="256" x2="256" y1="512" y2="-9.094947e-013"><stop offset="0" style="stop-color:#EC6EAD"/><stop offset="1" style="stop-color:#3494E6"/></linearGradient><circle cx="256" cy="256" fill="url(#SVGID_1_)" r="256"/><g><path d="M376.4,182.1h-22.3c-1.8,0-3.4-1.3-3.7-3.1c0-0.1,0-0.2-0.1-0.4l-6.5-25.7c-1.4-7-7.6-12.1-14.8-12.1H182.9   c-7.2,0-13.4,5.1-14.8,12.1l-6.5,25.7c0,0.1-0.1,0.2-0.1,0.4c-0.3,1.8-1.9,3.1-3.7,3.1h-22.3c-8.3,0-15.1,6.8-15.1,15.1v159   c0,8.3,6.8,15.1,15.1,15.1h240.9c8.3,0,15.1-6.8,15.1-15.1v-159C391.5,188.8,384.7,182.1,376.4,182.1z M380.2,356.1   c0,2.1-1.7,3.8-3.8,3.8H135.6c-2.1,0-3.8-1.7-3.8-3.8v-159c0-2.1,1.7-3.8,3.8-3.8h22.3c7.2,0,13.4-5.1,14.8-12.1l6.5-25.7   c0-0.1,0.1-0.2,0.1-0.4c0.3-1.8,1.9-3.1,3.7-3.1h146.2c1.8,0,3.4,1.3,3.7,3.1c0,0.1,0,0.2,0.1,0.4l6.5,25.7   c1.4,7,7.6,12.1,14.8,12.1h22.3c2.1,0,3.8,1.7,3.8,3.8V356.1z" fill="#FFFFFF"/><path d="M256,213.8c-32.7,0-59.3,26.6-59.3,59.3s26.6,59.3,59.3,59.3s59.3-26.6,59.3-59.3S288.7,213.8,256,213.8z    M256,321c-26.5,0-48-21.5-48-48s21.5-48,48-48s48,21.5,48,48S282.5,321,256,321z" fill="#FFFFFF"/></g></svg>